<svg width="120" height="120" xmlns="http://www.w3.org/2000/svg" xmlns:svg="http://www.w3.org/2000/svg">
 <title>StackOverflow icon</title>
 <style>.st0{fill:#bcbbbb}.st1{fill:#f48023}</style>
 <g>
  <title>Layer 1</title>
  <g stroke="null" id="svg_4">
   <path fill="black" id="svg_1" d="m97.328507,109.318623l0,-31.735611l10.53294,0l0,42.26855l-95.070041,0l0,-42.26855l10.53294,0l0,31.735611l74.004161,0z" class="st0"/>
   <path fill="black" id="svg_2" d="m34.951617,74.573601l51.707159,10.806523l2.188663,-10.396148l-51.707159,-10.806523l-2.188663,10.396148zm6.839571,-24.622457l47.876999,22.297002l4.377326,-9.5754l-47.876999,-22.433794l-4.377326,9.712191zm13.268768,-23.528125l40.627053,33.787482l6.70278,-8.070694l-40.627053,-33.787482l-6.70278,8.070694zm26.263954,-25.032831l-8.481068,6.292406l31.462028,42.405342l8.481068,-6.292406l-31.462028,-42.405342zm-47.466625,97.258703l52.80149,0l0,-10.53294l-52.80149,0l0,10.53294z" class="st1"/>
  </g>
 </g>
</svg>